{"title":"Saaiyaan - Heroine (2012) 1080p [FULL SONG][veNom]","uid":7577678,"size":78638866,"categoryP":"video","categoryS":"music_videos","magnet":"?xt=urn:btih:933ea387371633bf07ba88ce51f1824bcbefa713&amp;dn=Saaiyaan+-+Heroine+%282012%29+1080p+%5BFULL+SONG%5D%5BveNom%5D&amp;tr=udp%3A%2F%2Ftracker.openbittorrent.com%3A80&amp;tr=udp%3A%2F%2Fopen.demonii.com%3A1337&amp;tr=udp%3A%2F%2Ftracker.coppersurfer.tk%3A6969&amp;tr=udp%3A%2F%2Fexodus.desync.com%3A6969","seeders":0,"leechers":0,"uploader":"x{VENOM}x","files":2,"time":1346115286,"description":"Saaiyaan - Heroine (2012) 1080p [FULL SONG] by Rahat Fateh Ali Khan [VENOM]\n\n**********\nViDEO\n**********\nFormat                                   : AVC\nFormat/Info                              : Advanced Video Codec\nFormat profile                           : &lt;a class=&quot;__cf_email__&quot; href=&quot;/cdn-cgi/l/email-protection&quot; data-cfemail=&quot;9ed6f7f9f6ded2aab0ae&quot;&gt;[email&amp;#160;protected]&lt;/a&gt;&lt;script data-cfhash='f9e31' type=&quot;text/javascript&quot;&gt;\n/* &lt;![CDATA[ */!function(){try{var t=&quot;currentScript&quot;in document?document.currentScript:function(){for(var t=document.getElementsByTagName(&quot;script&quot;),e=t.length;e--;)if(t[e].getAttribute(&quot;data-cfhash&quot;))return t[e]}();if(t&amp;&amp;t.previousSibling){var e,r,n,i,c=t.previousSibling,a=c.getAttribute(&quot;data-cfemail&quot;);if(a){for(e=&quot;&quot;,r=parseInt(a.substr(0,2),16),n=2;a.length-n;n+=2)i=parseInt(a.substr(n,2),16)^r,e+=String.fromCharCode(i);e=document.createTextNode(e),c.parentNode.replaceChild(e,c)}t.parentNode.removeChild(t);}}catch(u){}}()/* ]]&gt; */&lt;/script&gt;\nFormat settings, CABAC                   : Yes\nFormat settings, ReFrames                : 1 frame\nFormat settings, GOP                     : M=1, N=48\nCodec ID                                 : avc1\nCodec ID/Info                            : Advanced Video Coding\nDuration                                 : 3mn 24s\nBit rate                                 : 2 879 Kbps\nMaximum bit rate                         : 6 816 Kbps\nWidth                                    : 1 920 pixels\nHeight                                   : 816 pixels\nDisplay aspect ratio                     : 2.35:1\nFrame rate mode                          : Constant\nFrame rate                               : 24.000 fps\nColor space                              : YUV\nChroma subsampling                       : 4:2:0\nBit depth                                : 8 bits\nScan type                                : Progressive\nBits/(Pixel*Frame)                       : 0.077\nStream size                              : 70.2 MiB (94%)\n\n**********\nAUDiO\n**********\nID                                       : 2\nFormat                                   : AAC\nFormat/Info                              : Advanced Audio Codec\nFormat profile                           : LC\nCodec ID                                 : 40\nDuration                                 : 3mn 24s\nBit rate mode                            : Variable\nBit rate                                 : 192 Kbps\nMaximum bit rate                         : 202 Kbps\nChannel(s)                               : 2 channels\nChannel positions                        : Front: L R\nSampling rate                            : 44.1 KHz\nCompression mode                         : Lossy\nStream size                              : 4.69 MiB (6%)\n\n************\nSCREENS\n************\n &lt;a href=&quot;\nhttp://imgbox.com/ace9wnnD&quot; rel=&quot;nofollow&quot; target=&quot;_NEW&quot;&gt;\nhttp://imgbox.com/ace9wnnD&lt;/a&gt; &lt;a href=&quot;\nhttp://imgbox.com/acx8sLvd&quot; rel=&quot;nofollow&quot; target=&quot;_NEW&quot;&gt;\nhttp://imgbox.com/acx8sLvd&lt;/a&gt; &lt;a href=&quot;\nhttp://imgbox.com/adnCT7Xf&quot; rel=&quot;nofollow&quot; target=&quot;_NEW&quot;&gt;\nhttp://imgbox.com/adnCT7Xf&lt;/a&gt; &lt;a href=&quot;\nhttp://imgbox.com/abp1rnCB&quot; rel=&quot;nofollow&quot; target=&quot;_NEW&quot;&gt;\nhttp://imgbox.com/abp1rnCB&lt;/a&gt; &lt;a href=&quot;\nhttp://imgbox.com/adwhiUYQ&quot; rel=&quot;nofollow&quot; target=&quot;_NEW&quot;&gt;\nhttp://imgbox.com/adwhiUYQ&lt;/a&gt;","torrent":{"xt":"urn:btih:933ea387371633bf07ba88ce51f1824bcbefa713","amp;dn":"Saaiyaan+-+Heroine+%282012%29+1080p+%5BFULL+SONG%5D%5BveNom%5D","amp;tr":["udp%3A%2F%2Ftracker.openbittorrent.com%3A80","udp%3A%2F%2Fopen.demonii.com%3A1337","udp%3A%2F%2Ftracker.coppersurfer.tk%3A6969","udp%3A%2F%2Fexodus.desync.com%3A6969"],"infoHash":"933ea387371633bf07ba88ce51f1824bcbefa713","infoHashBuffer":{"type":"Buffer","data":[147,62,163,135,55,22,51,191,7,186,136,206,81,241,130,75,203,239,167,19]},"announce":[],"urlList":[]}}